<svg xmlns="http://www.w3.org/2000/svg" width="375" viewBox="0 0 375 375" height="375" version="1.0"><g fill="#3168D8" fill-opacity=".4"><g><g><path d="M 42.75 -40.714844 L 2.035156 -40.714844 L 2.035156 -32.570312 L 18.320312 -32.570312 L 18.320312 0 L 26.464844 0 L 26.464844 -32.570312 L 42.75 -32.570312 Z M 42.75 -40.714844" transform="translate(44.218 184.726)"/></g></g></g><g fill="#3168D8" fill-opacity=".4"><g><g><path d="M 34.609375 0 C 39.085938 0 42.75 -3.664062 42.75 -8.144531 L 42.75 -40.714844 L 34.609375 -40.714844 L 34.609375 -8.144531 L 10.179688 -8.144531 L 10.179688 -40.714844 L 2.035156 -40.714844 L 2.035156 -8.144531 C 2.035156 -3.664062 5.699219 0 10.179688 0 Z M 34.609375 0" transform="translate(88.997 184.726)"/></g></g></g><g fill="#3168D8" fill-opacity=".4"><g><g><path d="M 42.75 -32.570312 C 42.75 -37.050781 39.085938 -40.714844 34.609375 -40.714844 L 2.035156 -40.714844 L 2.035156 0 L 10.179688 0 L 10.179688 -16.285156 L 14.960938 -16.285156 L 30.027344 -1.222656 C 30.839844 -0.40625 31.859375 0 32.980469 0 L 42.75 0 L 42.75 -8.144531 L 34.609375 -8.144531 L 26.464844 -16.285156 L 34.609375 -16.285156 C 39.085938 -16.285156 42.75 -19.949219 42.75 -24.429688 Z M 34.609375 -32.570312 L 34.609375 -24.429688 L 10.179688 -24.429688 L 10.179688 -32.570312 Z M 34.609375 -32.570312" transform="translate(133.776 184.726)"/></g></g></g><g fill="#3168D8" fill-opacity=".4"><g><g><path d="M 10.179688 0 L 10.179688 -26.820312 L 35.777344 -1.222656 C 36.542969 -0.457031 37.558594 0 38.679688 0 C 40.917969 0 42.75 -1.832031 42.75 -4.070312 L 42.75 -40.714844 L 34.609375 -40.714844 L 34.609375 -13.894531 L 9.007812 -39.492188 C 8.246094 -40.257812 7.226562 -40.714844 6.105469 -40.714844 C 3.867188 -40.714844 2.035156 -38.882812 2.035156 -36.644531 L 2.035156 0 Z M 10.179688 0" transform="translate(178.555 184.726)"/></g></g></g><g fill="#3168D8" fill-opacity=".4"><g><g><path d="M 42.75 0 L 42.75 -8.144531 L 26.464844 -8.144531 L 26.464844 -32.570312 L 42.75 -32.570312 L 42.75 -40.714844 L 2.035156 -40.714844 L 2.035156 -32.570312 L 18.320312 -32.570312 L 18.320312 -8.144531 L 2.035156 -8.144531 L 2.035156 0 Z M 42.75 0" transform="translate(245.724 184.726)"/></g></g></g><g fill="#3168D8" fill-opacity=".4"><g><g><path d="M 42.75 -40.714844 L 2.035156 -40.714844 L 2.035156 -32.570312 L 18.320312 -32.570312 L 18.320312 0 L 26.464844 0 L 26.464844 -32.570312 L 42.75 -32.570312 Z M 42.75 -40.714844" transform="translate(290.503 184.726)"/></g></g></g><g fill="#3168D8"><g><g><path d="M 42.75 -40.714844 L 2.035156 -40.714844 L 2.035156 -32.570312 L 18.320312 -32.570312 L 18.320312 0 L 26.464844 0 L 26.464844 -32.570312 L 42.75 -32.570312 Z M 42.75 -40.714844" transform="translate(41.969 182.477)"/></g></g></g><g fill="#3168D8"><g><g><path d="M 34.609375 0 C 39.085938 0 42.75 -3.664062 42.75 -8.144531 L 42.75 -40.714844 L 34.609375 -40.714844 L 34.609375 -8.144531 L 10.179688 -8.144531 L 10.179688 -40.714844 L 2.035156 -40.714844 L 2.035156 -8.144531 C 2.035156 -3.664062 5.699219 0 10.179688 0 Z M 34.609375 0" transform="translate(86.748 182.477)"/></g></g></g><g fill="#3168D8"><g><g><path d="M 42.75 -32.570312 C 42.75 -37.050781 39.085938 -40.714844 34.609375 -40.714844 L 2.035156 -40.714844 L 2.035156 0 L 10.179688 0 L 10.179688 -16.285156 L 14.960938 -16.285156 L 30.027344 -1.222656 C 30.839844 -0.40625 31.859375 0 32.980469 0 L 42.75 0 L 42.75 -8.144531 L 34.609375 -8.144531 L 26.464844 -16.285156 L 34.609375 -16.285156 C 39.085938 -16.285156 42.75 -19.949219 42.75 -24.429688 Z M 34.609375 -32.570312 L 34.609375 -24.429688 L 10.179688 -24.429688 L 10.179688 -32.570312 Z M 34.609375 -32.570312" transform="translate(131.527 182.477)"/></g></g></g><g fill="#3168D8"><g><g><path d="M 10.179688 0 L 10.179688 -26.820312 L 35.777344 -1.222656 C 36.542969 -0.457031 37.558594 0 38.679688 0 C 40.917969 0 42.75 -1.832031 42.75 -4.070312 L 42.75 -40.714844 L 34.609375 -40.714844 L 34.609375 -13.894531 L 9.007812 -39.492188 C 8.246094 -40.257812 7.226562 -40.714844 6.105469 -40.714844 C 3.867188 -40.714844 2.035156 -38.882812 2.035156 -36.644531 L 2.035156 0 Z M 10.179688 0" transform="translate(176.306 182.477)"/></g></g></g><g fill="#3168D8"><g><g><path d="M 42.75 0 L 42.75 -8.144531 L 26.464844 -8.144531 L 26.464844 -32.570312 L 42.75 -32.570312 L 42.75 -40.714844 L 2.035156 -40.714844 L 2.035156 -32.570312 L 18.320312 -32.570312 L 18.320312 -8.144531 L 2.035156 -8.144531 L 2.035156 0 Z M 42.75 0" transform="translate(243.475 182.477)"/></g></g></g><g fill="#3168D8"><g><g><path d="M 42.75 -40.714844 L 2.035156 -40.714844 L 2.035156 -32.570312 L 18.320312 -32.570312 L 18.320312 0 L 26.464844 0 L 26.464844 -32.570312 L 42.75 -32.570312 Z M 42.75 -40.714844" transform="translate(288.254 182.477)"/></g></g></g><g fill="#7900FF" fill-opacity=".4"><g><g><path d="M 46.652344 0 L 46.652344 -8.886719 L 11.109375 -8.886719 L 11.109375 -35.546875 L 46.652344 -35.546875 L 46.652344 -44.433594 L 11.109375 -44.433594 C 6.21875 -44.433594 2.222656 -40.433594 2.222656 -35.546875 L 2.222656 -8.886719 C 2.222656 -4 6.21875 0 11.109375 0 Z M 46.652344 0" transform="translate(43.35 234.715)"/></g></g></g><g fill="#7900FF" fill-opacity=".4"><g><g><path d="M 46.652344 -35.546875 C 46.652344 -40.433594 42.65625 -44.433594 37.765625 -44.433594 L 2.222656 -44.433594 L 2.222656 0 L 11.109375 0 L 11.109375 -17.773438 L 16.328125 -17.773438 L 32.769531 -1.332031 C 33.65625 -0.445312 34.769531 0 35.988281 0 L 46.652344 0 L 46.652344 -8.886719 L 37.765625 -8.886719 L 28.878906 -17.773438 L 37.765625 -17.773438 C 42.65625 -17.773438 46.652344 -21.773438 46.652344 -26.660156 Z M 37.765625 -35.546875 L 37.765625 -26.660156 L 11.109375 -26.660156 L 11.109375 -35.546875 Z M 37.765625 -35.546875" transform="translate(92.218 234.715)"/></g></g></g><g fill="#7900FF" fill-opacity=".4"><g><g><path d="M 37.765625 -26.660156 L 11.109375 -26.660156 L 11.109375 -44.433594 L 2.222656 -44.433594 L 2.222656 -26.660156 C 2.222656 -21.773438 6.21875 -17.773438 11.109375 -17.773438 L 37.765625 -17.773438 L 37.765625 -8.886719 L 2.222656 -8.886719 L 2.222656 0 L 37.765625 0 C 42.65625 0 46.652344 -4 46.652344 -8.886719 L 46.652344 -44.433594 L 37.765625 -44.433594 Z M 37.765625 -26.660156" transform="translate(141.085 234.715)"/></g></g></g><g fill="#7900FF" fill-opacity=".4"><g><g><path d="M 37.765625 -44.433594 L 2.222656 -44.433594 L 2.222656 0 L 11.109375 0 L 11.109375 -17.773438 L 37.765625 -17.773438 C 42.65625 -17.773438 46.652344 -21.773438 46.652344 -26.660156 L 46.652344 -35.546875 C 46.652344 -40.433594 42.65625 -44.433594 37.765625 -44.433594 Z M 11.109375 -26.660156 L 11.109375 -35.546875 L 37.765625 -35.546875 L 37.765625 -26.660156 Z M 11.109375 -26.660156" transform="translate(189.953 234.715)"/></g></g></g><g fill="#7900FF" fill-opacity=".4"><g><g><path d="M 46.652344 -44.433594 L 2.222656 -44.433594 L 2.222656 -35.546875 L 19.996094 -35.546875 L 19.996094 0 L 28.878906 0 L 28.878906 -35.546875 L 46.652344 -35.546875 Z M 46.652344 -44.433594" transform="translate(238.82 234.715)"/></g></g></g><g fill="#7900FF" fill-opacity=".4"><g><g><path d="M 37.765625 0 C 42.710938 0 46.652344 -4.054688 46.652344 -8.886719 L 46.652344 -35.546875 C 46.652344 -40.433594 42.65625 -44.433594 37.765625 -44.433594 L 11.109375 -44.433594 C 6.21875 -44.433594 2.222656 -40.433594 2.222656 -35.546875 L 2.222656 -8.886719 C 2.222656 -4 6.21875 0 11.109375 0 Z M 11.109375 -35.546875 L 37.765625 -35.546875 L 37.765625 -8.886719 L 11.109375 -8.886719 Z M 11.109375 -35.546875" transform="translate(287.688 234.715)"/></g></g></g><g fill="#7900FF"><g><g><path d="M 46.652344 0 L 46.652344 -8.886719 L 11.109375 -8.886719 L 11.109375 -35.546875 L 46.652344 -35.546875 L 46.652344 -44.433594 L 11.109375 -44.433594 C 6.21875 -44.433594 2.222656 -40.433594 2.222656 -35.546875 L 2.222656 -8.886719 C 2.222656 -4 6.21875 0 11.109375 0 Z M 46.652344 0" transform="translate(40.896 232.26)"/></g></g></g><g fill="#7900FF"><g><g><path d="M 46.652344 -35.546875 C 46.652344 -40.433594 42.65625 -44.433594 37.765625 -44.433594 L 2.222656 -44.433594 L 2.222656 0 L 11.109375 0 L 11.109375 -17.773438 L 16.328125 -17.773438 L 32.769531 -1.332031 C 33.65625 -0.445312 34.769531 0 35.988281 0 L 46.652344 0 L 46.652344 -8.886719 L 37.765625 -8.886719 L 28.878906 -17.773438 L 37.765625 -17.773438 C 42.65625 -17.773438 46.652344 -21.773438 46.652344 -26.660156 Z M 37.765625 -35.546875 L 37.765625 -26.660156 L 11.109375 -26.660156 L 11.109375 -35.546875 Z M 37.765625 -35.546875" transform="translate(89.763 232.26)"/></g></g></g><g fill="#7900FF"><g><g><path d="M 37.765625 -26.660156 L 11.109375 -26.660156 L 11.109375 -44.433594 L 2.222656 -44.433594 L 2.222656 -26.660156 C 2.222656 -21.773438 6.21875 -17.773438 11.109375 -17.773438 L 37.765625 -17.773438 L 37.765625 -8.886719 L 2.222656 -8.886719 L 2.222656 0 L 37.765625 0 C 42.65625 0 46.652344 -4 46.652344 -8.886719 L 46.652344 -44.433594 L 37.765625 -44.433594 Z M 37.765625 -26.660156" transform="translate(138.63 232.26)"/></g></g></g><g fill="#7900FF"><g><g><path d="M 37.765625 -44.433594 L 2.222656 -44.433594 L 2.222656 0 L 11.109375 0 L 11.109375 -17.773438 L 37.765625 -17.773438 C 42.65625 -17.773438 46.652344 -21.773438 46.652344 -26.660156 L 46.652344 -35.546875 C 46.652344 -40.433594 42.65625 -44.433594 37.765625 -44.433594 Z M 11.109375 -26.660156 L 11.109375 -35.546875 L 37.765625 -35.546875 L 37.765625 -26.660156 Z M 11.109375 -26.660156" transform="translate(187.498 232.26)"/></g></g></g><g fill="#7900FF"><g><g><path d="M 46.652344 -44.433594 L 2.222656 -44.433594 L 2.222656 -35.546875 L 19.996094 -35.546875 L 19.996094 0 L 28.878906 0 L 28.878906 -35.546875 L 46.652344 -35.546875 Z M 46.652344 -44.433594" transform="translate(236.366 232.26)"/></g></g></g><g fill="#7900FF"><g><g><path d="M 37.765625 0 C 42.710938 0 46.652344 -4.054688 46.652344 -8.886719 L 46.652344 -35.546875 C 46.652344 -40.433594 42.65625 -44.433594 37.765625 -44.433594 L 11.109375 -44.433594 C 6.21875 -44.433594 2.222656 -40.433594 2.222656 -35.546875 L 2.222656 -8.886719 C 2.222656 -4 6.21875 0 11.109375 0 Z M 11.109375 -35.546875 L 37.765625 -35.546875 L 37.765625 -8.886719 L 11.109375 -8.886719 Z M 11.109375 -35.546875" transform="translate(285.233 232.26)"/></g></g></g></svg>