<svg xmlns="http://www.w3.org/2000/svg" xmlns:xlink="http://www.w3.org/1999/xlink" width="375" viewBox="0 0 375 375" height="375" version="1.0"><defs><clipPath id="a"><path d="M 43 168 L 117 168 L 117 206 L 43 206 Z M 43 168"/></clipPath><clipPath id="b"><path d="M 79.875 168.761719 L 43.226562 184.792969 L 79.875 205.40625 L 116.523438 184.792969 Z M 79.875 168.761719"/></clipPath><clipPath id="d"><path d="M 40 124.425781 L 119 124.425781 L 119 208 L 40 208 Z M 40 124.425781"/></clipPath><clipPath id="e"><path d="M 43.179688 187.574219 L 77.601562 207.242188 C 78.304688 207.640625 79.085938 207.839844 79.871094 207.839844 C 80.660156 207.839844 81.445312 207.640625 82.144531 207.238281 L 116.566406 187.570312 C 117.652344 186.949219 118.441406 185.902344 118.742188 184.691406 C 119.039062 183.484375 118.828125 182.1875 118.160156 181.136719 L 83.738281 127.054688 C 82.894531 125.726562 81.449219 124.933594 79.875 124.933594 C 78.300781 124.933594 76.855469 125.726562 76.007812 127.054688 L 41.585938 181.136719 C 40.917969 182.1875 40.703125 183.484375 41.003906 184.695312 C 41.300781 185.90625 42.097656 186.957031 43.179688 187.574219 Z M 46.886719 184.421875 L 77.585938 172.144531 L 77.585938 201.957031 Z M 82.164062 172.144531 L 112.859375 184.417969 L 82.164062 201.957031 Z M 111.277344 178.855469 L 82.164062 167.210938 L 82.164062 133.113281 Z M 77.585938 133.113281 L 77.585938 167.210938 L 48.472656 178.855469 Z M 77.585938 133.113281"/></clipPath><clipPath id="g"><path d="M 37.5 193 L 122.25 193 L 122.25 250 L 37.5 250 Z M 37.5 193"/></clipPath><clipPath id="h"><path d="M 121.511719 194.015625 C 120.78125 193.203125 119.574219 193.023438 118.636719 193.582031 L 79.875 216.679688 L 41.113281 193.582031 C 40.175781 193.019531 38.96875 193.199219 38.238281 194.015625 C 37.507812 194.828125 37.449219 196.042969 38.105469 196.917969 L 76.1875 247.773438 C 77.058594 248.960938 78.40625 249.636719 79.875 249.636719 C 81.34375 249.636719 82.691406 248.960938 83.550781 247.789062 L 121.644531 196.917969 C 122.296875 196.042969 122.242188 194.828125 121.511719 194.015625 Z M 48.714844 203.441406 L 77.585938 220.644531 L 77.585938 241.996094 Z M 82.164062 241.976562 L 82.164062 220.644531 L 111.03125 203.445312 Z M 82.164062 241.976562"/></clipPath><linearGradient x1="32" gradientTransform="matrix(2.29054 0 0 2.2902 6.578 113.797)" xmlns:xlink="http://www.w3.org/1999/xlink" y1="24" x2="32" gradientUnits="userSpaceOnUse" y2="40" xlink:type="simple" xlink:actuate="onLoad" id="c" xlink:show="other"><stop stop-color="#75C5FF" offset="0"/><stop stop-color="#75C5FF" offset=".008"/><stop stop-color="#76C5FF" offset=".016"/><stop stop-color="#77C5FF" offset=".023"/><stop stop-color="#78C4FF" offset=".031"/><stop stop-color="#79C4FF" offset=".039"/><stop stop-color="#7AC4FF" offset=".047"/><stop stop-color="#7BC4FF" offset=".055"/><stop stop-color="#7CC4FF" offset=".063"/><stop stop-color="#7DC3FF" offset=".07"/><stop stop-color="#7DC3FF" offset=".078"/><stop stop-color="#7EC3FF" offset=".086"/><stop stop-color="#7FC3FF" offset=".094"/><stop stop-color="#80C2FF" offset=".102"/><stop stop-color="#81C2FF" offset=".109"/><stop stop-color="#82C2FF" offset=".117"/><stop stop-color="#83C2FF" offset=".125"/><stop stop-color="#84C2FF" offset=".133"/><stop stop-color="#85C1FF" offset=".141"/><stop stop-color="#86C1FF" offset=".148"/><stop stop-color="#87C1FF" offset=".156"/><stop stop-color="#88C1FF" offset=".164"/><stop stop-color="#88C1FF" offset=".172"/><stop stop-color="#89C0FF" offset=".18"/><stop stop-color="#8AC0FF" offset=".188"/><stop stop-color="#8BC0FF" offset=".195"/><stop stop-color="#8CC0FF" offset=".203"/><stop stop-color="#8DC0FF" offset=".211"/><stop stop-color="#8EBFFF" offset=".219"/><stop stop-color="#8FBFFF" offset=".227"/><stop stop-color="#90BFFF" offset=".234"/><stop stop-color="#91BFFF" offset=".242"/><stop stop-color="#92BEFF" offset=".25"/><stop stop-color="#93BEFF" offset=".258"/><stop stop-color="#93BEFF" offset=".266"/><stop stop-color="#94BEFF" offset=".273"/><stop stop-color="#95BEFF" offset=".281"/><stop stop-color="#96BDFF" offset=".289"/><stop stop-color="#97BDFF" offset=".297"/><stop stop-color="#98BDFF" offset=".305"/><stop stop-color="#99BDFF" offset=".313"/><stop stop-color="#9ABDFF" offset=".32"/><stop stop-color="#9BBCFF" offset=".328"/><stop stop-color="#9CBCFF" offset=".336"/><stop stop-color="#9DBCFF" offset=".344"/><stop stop-color="#9DBCFF" offset=".352"/><stop stop-color="#9EBCFF" offset=".359"/><stop stop-color="#9FBBFF" offset=".367"/><stop stop-color="#A0BBFF" offset=".375"/><stop stop-color="#A1BBFF" offset=".383"/><stop stop-color="#A2BBFF" offset=".391"/><stop stop-color="#A3BAFF" offset=".398"/><stop stop-color="#A4BAFF" offset=".406"/><stop stop-color="#A5BAFF" offset=".414"/><stop stop-color="#A6BAFF" offset=".422"/><stop stop-color="#A7BAFF" offset=".43"/><stop stop-color="#A8B9FF" offset=".438"/><stop stop-color="#A8B9FF" offset=".445"/><stop stop-color="#A9B9FF" offset=".453"/><stop stop-color="#AAB9FF" offset=".461"/><stop stop-color="#ABB9FF" offset=".469"/><stop stop-color="#ACB8FF" offset=".477"/><stop stop-color="#ADB8FF" offset=".484"/><stop stop-color="#AEB8FF" offset=".492"/><stop stop-color="#AFB8FF" offset=".5"/><stop stop-color="#B0B8FF" offset=".508"/><stop stop-color="#B1B7FF" offset=".516"/><stop stop-color="#B2B7FF" offset=".523"/><stop stop-color="#B3B7FF" offset=".531"/><stop stop-color="#B3B7FF" offset=".539"/><stop stop-color="#B4B7FF" offset=".547"/><stop stop-color="#B5B6FF" offset=".555"/><stop stop-color="#B6B6FF" offset=".563"/><stop stop-color="#B7B6FF" offset=".57"/><stop stop-color="#B8B6FF" offset=".578"/><stop stop-color="#B9B5FF" offset=".586"/><stop stop-color="#BAB5FF" offset=".594"/><stop stop-color="#BBB5FF" offset=".602"/><stop stop-color="#BCB5FF" offset=".609"/><stop stop-color="#BDB5FF" offset=".617"/><stop stop-color="#BDB4FF" offset=".625"/><stop stop-color="#BEB4FF" offset=".633"/><stop stop-color="#BFB4FF" offset=".641"/><stop stop-color="#C0B4FF" offset=".648"/><stop stop-color="#C1B4FF" offset=".656"/><stop stop-color="#C2B3FF" offset=".664"/><stop stop-color="#C3B3FF" offset=".672"/><stop stop-color="#C4B3FF" offset=".68"/><stop stop-color="#C5B3FF" offset=".688"/><stop stop-color="#C6B3FF" offset=".695"/><stop stop-color="#C7B2FF" offset=".703"/><stop stop-color="#C8B2FF" offset=".711"/><stop stop-color="#C8B2FF" offset=".719"/><stop stop-color="#C9B2FF" offset=".727"/><stop stop-color="#CAB1FF" offset=".734"/><stop stop-color="#CBB1FF" offset=".742"/><stop stop-color="#CCB1FF" offset=".75"/><stop stop-color="#CDB1FF" offset=".758"/><stop stop-color="#CEB1FF" offset=".766"/><stop stop-color="#CFB0FF" offset=".773"/><stop stop-color="#D0B0FF" offset=".781"/><stop stop-color="#D1B0FF" offset=".789"/><stop stop-color="#D2B0FF" offset=".797"/><stop stop-color="#D2B0FF" offset=".805"/><stop stop-color="#D3AFFF" offset=".813"/><stop stop-color="#D4AFFF" offset=".82"/><stop stop-color="#D5AFFF" offset=".828"/><stop stop-color="#D6AFFF" offset=".836"/><stop stop-color="#D7AFFF" offset=".844"/><stop stop-color="#D8AEFF" offset=".852"/><stop stop-color="#D9AEFF" offset=".859"/><stop stop-color="#DAAEFF" offset=".867"/><stop stop-color="#DBAEFF" offset=".875"/><stop stop-color="#DCADFF" offset=".883"/><stop stop-color="#DDADFF" offset=".891"/><stop stop-color="#DDADFF" offset=".898"/><stop stop-color="#DEADFF" offset=".906"/><stop stop-color="#DFADFF" offset=".914"/><stop stop-color="#E0ACFF" offset=".922"/><stop stop-color="#E1ACFF" offset=".93"/><stop stop-color="#E2ACFF" offset=".938"/><stop stop-color="#E3ACFF" offset=".945"/><stop stop-color="#E4ACFF" offset=".953"/><stop stop-color="#E5ABFF" offset=".961"/><stop stop-color="#E6ABFF" offset=".969"/><stop stop-color="#E6ABFF" offset="1"/></linearGradient><linearGradient x1="32" gradientTransform="matrix(2.29054 0 0 2.2902 6.578 113.797)" xmlns:xlink="http://www.w3.org/1999/xlink" y1="4.863" x2="32" gradientUnits="userSpaceOnUse" y2="41.063" xlink:type="simple" xlink:actuate="onLoad" id="f" xlink:show="other"><stop stop-color="#1C6CFF" offset="0"/><stop stop-color="#1C6CFF" offset=".008"/><stop stop-color="#1D6BFF" offset=".016"/><stop stop-color="#1E6BFF" offset=".023"/><stop stop-color="#1F6BFF" offset=".031"/><stop stop-color="#206AFF" offset=".039"/><stop stop-color="#216AFF" offset=".047"/><stop stop-color="#2269FF" offset=".055"/><stop stop-color="#2369FF" offset=".063"/><stop stop-color="#2469FF" offset=".07"/><stop stop-color="#2568FF" offset=".078"/><stop stop-color="#2668FF" offset=".086"/><stop stop-color="#2767FF" offset=".094"/><stop stop-color="#2867FF" offset=".102"/><stop stop-color="#2967FF" offset=".109"/><stop stop-color="#2966FF" offset=".117"/><stop stop-color="#2A66FF" offset=".125"/><stop stop-color="#2B65FF" offset=".133"/><stop stop-color="#2C65FF" offset=".141"/><stop stop-color="#2D65FF" offset=".148"/><stop stop-color="#2E64FF" offset=".156"/><stop stop-color="#2F64FF" offset=".164"/><stop stop-color="#3063FF" offset=".172"/><stop stop-color="#3163FF" offset=".18"/><stop stop-color="#3263FF" offset=".188"/><stop stop-color="#3362FF" offset=".195"/><stop stop-color="#3462FF" offset=".203"/><stop stop-color="#3561FF" offset=".211"/><stop stop-color="#3661FF" offset=".219"/><stop stop-color="#3761FF" offset=".227"/><stop stop-color="#3860FF" offset=".234"/><stop stop-color="#3960FF" offset=".242"/><stop stop-color="#395FFF" offset=".25"/><stop stop-color="#3A5FFF" offset=".258"/><stop stop-color="#3B5FFF" offset=".266"/><stop stop-color="#3C5EFF" offset=".273"/><stop stop-color="#3D5EFF" offset=".281"/><stop stop-color="#3E5DFF" offset=".289"/><stop stop-color="#3F5DFF" offset=".297"/><stop stop-color="#405CFF" offset=".305"/><stop stop-color="#415CFF" offset=".313"/><stop stop-color="#425CFF" offset=".32"/><stop stop-color="#435BFF" offset=".328"/><stop stop-color="#445BFF" offset=".336"/><stop stop-color="#455AFF" offset=".344"/><stop stop-color="#465AFF" offset=".352"/><stop stop-color="#475AFF" offset=".359"/><stop stop-color="#4859FF" offset=".367"/><stop stop-color="#4959FF" offset=".375"/><stop stop-color="#4A58FF" offset=".383"/><stop stop-color="#4A58FF" offset=".391"/><stop stop-color="#4B58FF" offset=".398"/><stop stop-color="#4C57FF" offset=".406"/><stop stop-color="#4D57FF" offset=".414"/><stop stop-color="#4E56FF" offset=".422"/><stop stop-color="#4F56FF" offset=".43"/><stop stop-color="#5056FF" offset=".438"/><stop stop-color="#5155FF" offset=".445"/><stop stop-color="#5255FF" offset=".453"/><stop stop-color="#5354FF" offset=".461"/><stop stop-color="#5454FF" offset=".469"/><stop stop-color="#5554FF" offset=".477"/><stop stop-color="#5653FF" offset=".484"/><stop stop-color="#5753FF" offset=".492"/><stop stop-color="#5852FF" offset=".5"/><stop stop-color="#5952FF" offset=".508"/><stop stop-color="#5A52FF" offset=".516"/><stop stop-color="#5A51FF" offset=".523"/><stop stop-color="#5B51FF" offset=".531"/><stop stop-color="#5C50FF" offset=".539"/><stop stop-color="#5D50FF" offset=".547"/><stop stop-color="#5E4FFF" offset=".555"/><stop stop-color="#5F4FFF" offset=".563"/><stop stop-color="#604FFF" offset=".57"/><stop stop-color="#614EFF" offset=".578"/><stop stop-color="#624EFF" offset=".586"/><stop stop-color="#634DFF" offset=".594"/><stop stop-color="#644DFF" offset=".602"/><stop stop-color="#654DFF" offset=".609"/><stop stop-color="#664CFF" offset=".617"/><stop stop-color="#674CFF" offset=".625"/><stop stop-color="#684BFF" offset=".633"/><stop stop-color="#694BFF" offset=".641"/><stop stop-color="#6A4BFF" offset=".648"/><stop stop-color="#6A4AFF" offset=".656"/><stop stop-color="#6B4AFF" offset=".664"/><stop stop-color="#6C49FF" offset=".672"/><stop stop-color="#6D49FF" offset=".68"/><stop stop-color="#6E49FF" offset=".688"/><stop stop-color="#6F48FF" offset=".695"/><stop stop-color="#7048FF" offset=".703"/><stop stop-color="#7147FF" offset=".711"/><stop stop-color="#7247FF" offset=".719"/><stop stop-color="#7347FF" offset=".727"/><stop stop-color="#7446FF" offset=".734"/><stop stop-color="#7546FF" offset=".742"/><stop stop-color="#7645FF" offset=".75"/><stop stop-color="#7745FF" offset=".758"/><stop stop-color="#7845FF" offset=".766"/><stop stop-color="#7944FF" offset=".773"/><stop stop-color="#7A44FF" offset=".781"/><stop stop-color="#7A43FF" offset=".789"/><stop stop-color="#7B43FF" offset=".797"/><stop stop-color="#7C42FF" offset=".805"/><stop stop-color="#7D42FF" offset=".813"/><stop stop-color="#7E42FF" offset=".82"/><stop stop-color="#7F41FF" offset=".828"/><stop stop-color="#8041FF" offset=".836"/><stop stop-color="#8140FF" offset=".844"/><stop stop-color="#8240FF" offset=".852"/><stop stop-color="#8340FF" offset=".859"/><stop stop-color="#843FFF" offset=".867"/><stop stop-color="#853FFF" offset=".875"/><stop stop-color="#863EFF" offset=".883"/><stop stop-color="#873EFF" offset=".891"/><stop stop-color="#883EFF" offset=".898"/><stop stop-color="#893DFF" offset=".906"/><stop stop-color="#8A3DFF" offset=".914"/><stop stop-color="#8A3CFF" offset=".922"/><stop stop-color="#8B3CFF" offset=".93"/><stop stop-color="#8C3CFF" offset=".938"/><stop stop-color="#8D3BFF" offset=".945"/><stop stop-color="#8E3BFF" offset=".953"/><stop stop-color="#8F3AFF" offset=".961"/><stop stop-color="#903AFF" offset=".969"/><stop stop-color="#913AFF" offset=".977"/><stop stop-color="#9239FF" offset=".984"/><stop stop-color="#9339FF" offset=".992"/><stop stop-color="#9438FF" offset="1"/></linearGradient><linearGradient x1="32" gradientTransform="matrix(2.29054 0 0 2.2902 6.578 113.797)" xmlns:xlink="http://www.w3.org/1999/xlink" y1="34.592" x2="32" gradientUnits="userSpaceOnUse" y2="59.314" xlink:type="simple" xlink:actuate="onLoad" id="i" xlink:show="other"><stop stop-color="#7F41FF" offset="0"/><stop stop-color="#7F41FF" offset=".008"/><stop stop-color="#8041FF" offset=".016"/><stop stop-color="#8041FF" offset=".023"/><stop stop-color="#8140FF" offset=".031"/><stop stop-color="#8240FF" offset=".039"/><stop stop-color="#8240FF" offset=".047"/><stop stop-color="#8340FF" offset=".055"/><stop stop-color="#843FFF" offset=".063"/><stop stop-color="#843FFF" offset=".07"/><stop stop-color="#853FFF" offset=".078"/><stop stop-color="#863FFF" offset=".086"/><stop stop-color="#863EFF" offset=".094"/><stop stop-color="#873EFF" offset=".102"/><stop stop-color="#883EFF" offset=".109"/><stop stop-color="#883DFF" offset=".117"/><stop stop-color="#893DFF" offset=".125"/><stop stop-color="#893DFF" offset=".133"/><stop stop-color="#8A3DFF" offset=".141"/><stop stop-color="#8B3CFF" offset=".148"/><stop stop-color="#8B3CFF" offset=".156"/><stop stop-color="#8C3CFF" offset=".164"/><stop stop-color="#8D3BFF" offset=".172"/><stop stop-color="#8D3BFF" offset=".18"/><stop stop-color="#8E3BFF" offset=".188"/><stop stop-color="#8F3BFF" offset=".195"/><stop stop-color="#8F3AFF" offset=".203"/><stop stop-color="#903AFF" offset=".211"/><stop stop-color="#913AFF" offset=".219"/><stop stop-color="#913AFF" offset=".227"/><stop stop-color="#9239FF" offset=".234"/><stop stop-color="#9239FF" offset=".242"/><stop stop-color="#9339FF" offset=".25"/><stop stop-color="#9438FF" offset=".258"/><stop stop-color="#9438FF" offset=".266"/><stop stop-color="#9538FF" offset=".273"/><stop stop-color="#9638FF" offset=".281"/><stop stop-color="#9637FF" offset=".289"/><stop stop-color="#9737FF" offset=".297"/><stop stop-color="#9837FF" offset=".305"/><stop stop-color="#9836FF" offset=".313"/><stop stop-color="#9936FF" offset=".32"/><stop stop-color="#9A36FF" offset=".328"/><stop stop-color="#9A36FF" offset=".336"/><stop stop-color="#9B35FF" offset=".344"/><stop stop-color="#9B35FF" offset=".352"/><stop stop-color="#9C35FF" offset=".359"/><stop stop-color="#9D35FF" offset=".367"/><stop stop-color="#9D34FF" offset=".375"/><stop stop-color="#9E34FF" offset=".383"/><stop stop-color="#9F34FF" offset=".391"/><stop stop-color="#9F33FF" offset=".398"/><stop stop-color="#A033FF" offset=".406"/><stop stop-color="#A133FF" offset=".414"/><stop stop-color="#A133FF" offset=".422"/><stop stop-color="#A232FF" offset=".43"/><stop stop-color="#A332FF" offset=".438"/><stop stop-color="#A332FF" offset=".445"/><stop stop-color="#A431FF" offset=".453"/><stop stop-color="#A431FF" offset=".461"/><stop stop-color="#A531FF" offset=".469"/><stop stop-color="#A631FF" offset=".477"/><stop stop-color="#A630FF" offset=".484"/><stop stop-color="#A730FF" offset=".492"/><stop stop-color="#A830FF" offset=".5"/><stop stop-color="#A830FF" offset=".508"/><stop stop-color="#A92FFF" offset=".516"/><stop stop-color="#AA2FFF" offset=".523"/><stop stop-color="#AA2FFF" offset=".531"/><stop stop-color="#AB2EFF" offset=".539"/><stop stop-color="#AC2EFF" offset=".547"/><stop stop-color="#AC2EFF" offset=".555"/><stop stop-color="#AD2EFF" offset=".563"/><stop stop-color="#AD2DFF" offset=".57"/><stop stop-color="#AE2DFF" offset=".578"/><stop stop-color="#AF2DFF" offset=".586"/><stop stop-color="#AF2CFF" offset=".594"/><stop stop-color="#B02CFF" offset=".602"/><stop stop-color="#B12CFF" offset=".609"/><stop stop-color="#B12CFF" offset=".617"/><stop stop-color="#B22BFF" offset=".625"/><stop stop-color="#B32BFF" offset=".633"/><stop stop-color="#B32BFF" offset=".641"/><stop stop-color="#B42BFF" offset=".648"/><stop stop-color="#B52AFF" offset=".656"/><stop stop-color="#B52AFF" offset=".664"/><stop stop-color="#B62AFF" offset=".672"/><stop stop-color="#B629FF" offset=".68"/><stop stop-color="#B729FF" offset=".688"/><stop stop-color="#B829FF" offset=".695"/><stop stop-color="#B829FF" offset=".703"/><stop stop-color="#B928FF" offset=".711"/><stop stop-color="#BA28FF" offset=".719"/><stop stop-color="#BA28FF" offset=".727"/><stop stop-color="#BB27FF" offset=".734"/><stop stop-color="#BC27FF" offset=".742"/><stop stop-color="#BC27FF" offset=".75"/><stop stop-color="#BD27FF" offset=".758"/><stop stop-color="#BE26FF" offset=".766"/><stop stop-color="#BE26FF" offset=".773"/><stop stop-color="#BF26FF" offset=".781"/><stop stop-color="#BF26FF" offset=".789"/><stop stop-color="#C025FF" offset=".797"/><stop stop-color="#C125FF" offset=".805"/><stop stop-color="#C125FF" offset=".813"/><stop stop-color="#C224FF" offset=".82"/><stop stop-color="#C324FF" offset=".828"/><stop stop-color="#C324FF" offset=".836"/><stop stop-color="#C424FF" offset=".844"/><stop stop-color="#C523FF" offset=".852"/><stop stop-color="#C523FF" offset=".859"/><stop stop-color="#C623FF" offset=".867"/><stop stop-color="#C722FF" offset=".875"/><stop stop-color="#C722FF" offset=".883"/><stop stop-color="#C822FF" offset=".891"/><stop stop-color="#C822FF" offset=".906"/><stop stop-color="#C822FF" offset=".938"/><stop stop-color="#C822FF" offset="1"/></linearGradient></defs><g clip-path="url(#a)"><g clip-path="url(#b)"><path fill="url(#c)" d="M 43.226562 168.761719 L 43.226562 205.40625 L 116.523438 205.40625 L 116.523438 168.761719 Z M 43.226562 168.761719"/></g></g><g clip-path="url(#d)"><g clip-path="url(#e)"><path fill="url(#f)" d="M 40.703125 124.933594 L 40.703125 207.839844 L 119.039062 207.839844 L 119.039062 124.933594 Z M 40.703125 124.933594"/></g></g><g clip-path="url(#g)"><g clip-path="url(#h)"><path fill="url(#i)" d="M 37.5 193.019531 L 37.5 249.636719 L 122.25 249.636719 L 122.25 193.019531 Z M 37.5 193.019531"/></g></g><g fill="#3168D8" fill-opacity=".4"><g><g><path d="M 30.660156 -29.203125 L 1.460938 -29.203125 L 1.460938 -23.359375 L 13.140625 -23.359375 L 13.140625 0 L 18.980469 0 L 18.980469 -23.359375 L 30.660156 -23.359375 Z M 30.660156 -29.203125" transform="translate(127.152 185.51)"/></g></g></g><g fill="#3168D8" fill-opacity=".4"><g><g><path d="M 24.820312 0 C 28.035156 0 30.660156 -2.628906 30.660156 -5.839844 L 30.660156 -29.203125 L 24.820312 -29.203125 L 24.820312 -5.839844 L 7.300781 -5.839844 L 7.300781 -29.203125 L 1.460938 -29.203125 L 1.460938 -5.839844 C 1.460938 -2.628906 4.089844 0 7.300781 0 Z M 24.820312 0" transform="translate(159.268 185.51)"/></g></g></g><g fill="#3168D8" fill-opacity=".4"><g><g><path d="M 30.660156 -23.359375 C 30.660156 -26.574219 28.035156 -29.203125 24.820312 -29.203125 L 1.460938 -29.203125 L 1.460938 0 L 7.300781 0 L 7.300781 -11.679688 L 10.730469 -11.679688 L 21.535156 -0.875 C 22.121094 -0.292969 22.851562 0 23.652344 0 L 30.660156 0 L 30.660156 -5.839844 L 24.820312 -5.839844 L 18.980469 -11.679688 L 24.820312 -11.679688 C 28.035156 -11.679688 30.660156 -14.308594 30.660156 -17.519531 Z M 24.820312 -23.359375 L 24.820312 -17.519531 L 7.300781 -17.519531 L 7.300781 -23.359375 Z M 24.820312 -23.359375" transform="translate(191.385 185.51)"/></g></g></g><g fill="#3168D8" fill-opacity=".4"><g><g><path d="M 7.300781 0 L 7.300781 -19.238281 L 25.660156 -0.875 C 26.207031 -0.328125 26.9375 0 27.742188 0 C 29.347656 0 30.660156 -1.3125 30.660156 -2.921875 L 30.660156 -29.203125 L 24.820312 -29.203125 L 24.820312 -9.964844 L 6.460938 -28.324219 C 5.914062 -28.871094 5.183594 -29.203125 4.378906 -29.203125 C 2.773438 -29.203125 1.460938 -27.886719 1.460938 -26.28125 L 1.460938 0 Z M 7.300781 0" transform="translate(223.501 185.51)"/></g></g></g><g fill="#3168D8" fill-opacity=".4"><g><g><path d="M 30.660156 0 L 30.660156 -5.839844 L 18.980469 -5.839844 L 18.980469 -23.359375 L 30.660156 -23.359375 L 30.660156 -29.203125 L 1.460938 -29.203125 L 1.460938 -23.359375 L 13.140625 -23.359375 L 13.140625 -5.839844 L 1.460938 -5.839844 L 1.460938 0 Z M 30.660156 0" transform="translate(271.676 185.51)"/></g></g></g><g fill="#3168D8" fill-opacity=".4"><g><g><path d="M 30.660156 -29.203125 L 1.460938 -29.203125 L 1.460938 -23.359375 L 13.140625 -23.359375 L 13.140625 0 L 18.980469 0 L 18.980469 -23.359375 L 30.660156 -23.359375 Z M 30.660156 -29.203125" transform="translate(303.793 185.51)"/></g></g></g><g fill="#3168D8"><g><g><path d="M 30.660156 -29.203125 L 1.460938 -29.203125 L 1.460938 -23.359375 L 13.140625 -23.359375 L 13.140625 0 L 18.980469 0 L 18.980469 -23.359375 L 30.660156 -23.359375 Z M 30.660156 -29.203125" transform="translate(125.538 183.897)"/></g></g></g><g fill="#3168D8"><g><g><path d="M 24.820312 0 C 28.035156 0 30.660156 -2.628906 30.660156 -5.839844 L 30.660156 -29.203125 L 24.820312 -29.203125 L 24.820312 -5.839844 L 7.300781 -5.839844 L 7.300781 -29.203125 L 1.460938 -29.203125 L 1.460938 -5.839844 C 1.460938 -2.628906 4.089844 0 7.300781 0 Z M 24.820312 0" transform="translate(157.655 183.897)"/></g></g></g><g fill="#3168D8"><g><g><path d="M 30.660156 -23.359375 C 30.660156 -26.574219 28.035156 -29.203125 24.820312 -29.203125 L 1.460938 -29.203125 L 1.460938 0 L 7.300781 0 L 7.300781 -11.679688 L 10.730469 -11.679688 L 21.535156 -0.875 C 22.121094 -0.292969 22.851562 0 23.652344 0 L 30.660156 0 L 30.660156 -5.839844 L 24.820312 -5.839844 L 18.980469 -11.679688 L 24.820312 -11.679688 C 28.035156 -11.679688 30.660156 -14.308594 30.660156 -17.519531 Z M 24.820312 -23.359375 L 24.820312 -17.519531 L 7.300781 -17.519531 L 7.300781 -23.359375 Z M 24.820312 -23.359375" transform="translate(189.772 183.897)"/></g></g></g><g fill="#3168D8"><g><g><path d="M 7.300781 0 L 7.300781 -19.238281 L 25.660156 -0.875 C 26.207031 -0.328125 26.9375 0 27.742188 0 C 29.347656 0 30.660156 -1.3125 30.660156 -2.921875 L 30.660156 -29.203125 L 24.820312 -29.203125 L 24.820312 -9.964844 L 6.460938 -28.324219 C 5.914062 -28.871094 5.183594 -29.203125 4.378906 -29.203125 C 2.773438 -29.203125 1.460938 -27.886719 1.460938 -26.28125 L 1.460938 0 Z M 7.300781 0" transform="translate(221.888 183.897)"/></g></g></g><g fill="#3168D8"><g><g><path d="M 30.660156 0 L 30.660156 -5.839844 L 18.980469 -5.839844 L 18.980469 -23.359375 L 30.660156 -23.359375 L 30.660156 -29.203125 L 1.460938 -29.203125 L 1.460938 -23.359375 L 13.140625 -23.359375 L 13.140625 -5.839844 L 1.460938 -5.839844 L 1.460938 0 Z M 30.660156 0" transform="translate(270.063 183.897)"/></g></g></g><g fill="#3168D8"><g><g><path d="M 30.660156 -29.203125 L 1.460938 -29.203125 L 1.460938 -23.359375 L 13.140625 -23.359375 L 13.140625 0 L 18.980469 0 L 18.980469 -23.359375 L 30.660156 -23.359375 Z M 30.660156 -29.203125" transform="translate(302.18 183.897)"/></g></g></g><g fill="#7900FF" fill-opacity=".4"><g><g><path d="M 33.460938 0 L 33.460938 -6.375 L 7.96875 -6.375 L 7.96875 -25.492188 L 33.460938 -25.492188 L 33.460938 -31.867188 L 7.96875 -31.867188 C 4.460938 -31.867188 1.59375 -29 1.59375 -25.492188 L 1.59375 -6.375 C 1.59375 -2.867188 4.460938 0 7.96875 0 Z M 33.460938 0" transform="translate(126.53 221.364)"/></g></g></g><g fill="#7900FF" fill-opacity=".4"><g><g><path d="M 33.460938 -25.492188 C 33.460938 -29 30.59375 -31.867188 27.085938 -31.867188 L 1.59375 -31.867188 L 1.59375 0 L 7.96875 0 L 7.96875 -12.746094 L 11.710938 -12.746094 L 23.503906 -0.957031 C 24.140625 -0.320312 24.9375 0 25.8125 0 L 33.460938 0 L 33.460938 -6.375 L 27.085938 -6.375 L 20.714844 -12.746094 L 27.085938 -12.746094 C 30.59375 -12.746094 33.460938 -15.613281 33.460938 -19.121094 Z M 27.085938 -25.492188 L 27.085938 -19.121094 L 7.96875 -19.121094 L 7.96875 -25.492188 Z M 27.085938 -25.492188" transform="translate(161.578 221.364)"/></g></g></g><g fill="#7900FF" fill-opacity=".4"><g><g><path d="M 27.085938 -19.121094 L 7.96875 -19.121094 L 7.96875 -31.867188 L 1.59375 -31.867188 L 1.59375 -19.121094 C 1.59375 -15.613281 4.460938 -12.746094 7.96875 -12.746094 L 27.085938 -12.746094 L 27.085938 -6.375 L 1.59375 -6.375 L 1.59375 0 L 27.085938 0 C 30.59375 0 33.460938 -2.867188 33.460938 -6.375 L 33.460938 -31.867188 L 27.085938 -31.867188 Z M 27.085938 -19.121094" transform="translate(196.627 221.364)"/></g></g></g><g fill="#7900FF" fill-opacity=".4"><g><g><path d="M 27.085938 -31.867188 L 1.59375 -31.867188 L 1.59375 0 L 7.96875 0 L 7.96875 -12.746094 L 27.085938 -12.746094 C 30.59375 -12.746094 33.460938 -15.613281 33.460938 -19.121094 L 33.460938 -25.492188 C 33.460938 -29 30.59375 -31.867188 27.085938 -31.867188 Z M 7.96875 -19.121094 L 7.96875 -25.492188 L 27.085938 -25.492188 L 27.085938 -19.121094 Z M 7.96875 -19.121094" transform="translate(231.676 221.364)"/></g></g></g><g fill="#7900FF" fill-opacity=".4"><g><g><path d="M 33.460938 -31.867188 L 1.59375 -31.867188 L 1.59375 -25.492188 L 14.339844 -25.492188 L 14.339844 0 L 20.714844 0 L 20.714844 -25.492188 L 33.460938 -25.492188 Z M 33.460938 -31.867188" transform="translate(266.725 221.364)"/></g></g></g><g fill="#7900FF" fill-opacity=".4"><g><g><path d="M 27.085938 0 C 30.632812 0 33.460938 -2.90625 33.460938 -6.375 L 33.460938 -25.492188 C 33.460938 -29 30.59375 -31.867188 27.085938 -31.867188 L 7.96875 -31.867188 C 4.460938 -31.867188 1.59375 -29 1.59375 -25.492188 L 1.59375 -6.375 C 1.59375 -2.867188 4.460938 0 7.96875 0 Z M 7.96875 -25.492188 L 27.085938 -25.492188 L 27.085938 -6.375 L 7.96875 -6.375 Z M 7.96875 -25.492188" transform="translate(301.773 221.364)"/></g></g></g><g fill="#7900FF"><g><g><path d="M 33.460938 0 L 33.460938 -6.375 L 7.96875 -6.375 L 7.96875 -25.492188 L 33.460938 -25.492188 L 33.460938 -31.867188 L 7.96875 -31.867188 C 4.460938 -31.867188 1.59375 -29 1.59375 -25.492188 L 1.59375 -6.375 C 1.59375 -2.867188 4.460938 0 7.96875 0 Z M 33.460938 0" transform="translate(124.769 219.603)"/></g></g></g><g fill="#7900FF"><g><g><path d="M 33.460938 -25.492188 C 33.460938 -29 30.59375 -31.867188 27.085938 -31.867188 L 1.59375 -31.867188 L 1.59375 0 L 7.96875 0 L 7.96875 -12.746094 L 11.710938 -12.746094 L 23.503906 -0.957031 C 24.140625 -0.320312 24.9375 0 25.8125 0 L 33.460938 0 L 33.460938 -6.375 L 27.085938 -6.375 L 20.714844 -12.746094 L 27.085938 -12.746094 C 30.59375 -12.746094 33.460938 -15.613281 33.460938 -19.121094 Z M 27.085938 -25.492188 L 27.085938 -19.121094 L 7.96875 -19.121094 L 7.96875 -25.492188 Z M 27.085938 -25.492188" transform="translate(159.818 219.603)"/></g></g></g><g fill="#7900FF"><g><g><path d="M 27.085938 -19.121094 L 7.96875 -19.121094 L 7.96875 -31.867188 L 1.59375 -31.867188 L 1.59375 -19.121094 C 1.59375 -15.613281 4.460938 -12.746094 7.96875 -12.746094 L 27.085938 -12.746094 L 27.085938 -6.375 L 1.59375 -6.375 L 1.59375 0 L 27.085938 0 C 30.59375 0 33.460938 -2.867188 33.460938 -6.375 L 33.460938 -31.867188 L 27.085938 -31.867188 Z M 27.085938 -19.121094" transform="translate(194.867 219.603)"/></g></g></g><g fill="#7900FF"><g><g><path d="M 27.085938 -31.867188 L 1.59375 -31.867188 L 1.59375 0 L 7.96875 0 L 7.96875 -12.746094 L 27.085938 -12.746094 C 30.59375 -12.746094 33.460938 -15.613281 33.460938 -19.121094 L 33.460938 -25.492188 C 33.460938 -29 30.59375 -31.867188 27.085938 -31.867188 Z M 7.96875 -19.121094 L 7.96875 -25.492188 L 27.085938 -25.492188 L 27.085938 -19.121094 Z M 7.96875 -19.121094" transform="translate(229.915 219.603)"/></g></g></g><g fill="#7900FF"><g><g><path d="M 33.460938 -31.867188 L 1.59375 -31.867188 L 1.59375 -25.492188 L 14.339844 -25.492188 L 14.339844 0 L 20.714844 0 L 20.714844 -25.492188 L 33.460938 -25.492188 Z M 33.460938 -31.867188" transform="translate(264.964 219.603)"/></g></g></g><g fill="#7900FF"><g><g><path d="M 27.085938 0 C 30.632812 0 33.460938 -2.90625 33.460938 -6.375 L 33.460938 -25.492188 C 33.460938 -29 30.59375 -31.867188 27.085938 -31.867188 L 7.96875 -31.867188 C 4.460938 -31.867188 1.59375 -29 1.59375 -25.492188 L 1.59375 -6.375 C 1.59375 -2.867188 4.460938 0 7.96875 0 Z M 7.96875 -25.492188 L 27.085938 -25.492188 L 27.085938 -6.375 L 7.96875 -6.375 Z M 7.96875 -25.492188" transform="translate(300.013 219.603)"/></g></g></g></svg>